<?xml version="1.0" encoding="UTF-8" standalone="no"?>
<!-- Generator: Adobe Illustrator 23.0.1, SVG Export Plug-In . SVG Version: 6.00 Build 0)  -->

<svg
   xmlns:dc="http://purl.org/dc/elements/1.1/"
   xmlns:cc="http://creativecommons.org/ns#"
   xmlns:rdf="http://www.w3.org/1999/02/22-rdf-syntax-ns#"
   xmlns:svg="http://www.w3.org/2000/svg"
   xmlns="http://www.w3.org/2000/svg"
   xmlns:sodipodi="http://sodipodi.sourceforge.net/DTD/sodipodi-0.dtd"
   xmlns:inkscape="http://www.inkscape.org/namespaces/inkscape"
   version="1.1"
   id="Layer_1"
   x="0px"
   y="0px"
   viewBox="0 0 450 280"
   xml:space="preserve"
   sodipodi:docname="qosf_colour_logo_larger.svg"
   width="450"
   height="280"
   inkscape:version="0.92.4 (unknown)"><metadata
   id="metadata37"><rdf:RDF><cc:Work
       rdf:about=""><dc:format>image/svg+xml</dc:format><dc:type
         rdf:resource="http://purl.org/dc/dcmitype/StillImage" /><dc:title></dc:title></cc:Work></rdf:RDF></metadata><defs
   id="defs35" /><sodipodi:namedview
   pagecolor="#ffffff"
   bordercolor="#666666"
   borderopacity="1"
   objecttolerance="10"
   gridtolerance="10"
   guidetolerance="10"
   inkscape:pageopacity="0"
   inkscape:pageshadow="2"
   inkscape:window-width="2560"
   inkscape:window-height="1440"
   id="namedview33"
   showgrid="false"
   inkscape:zoom="1.6388889"
   inkscape:cx="198.68136"
   inkscape:cy="132.89999"
   inkscape:window-x="0"
   inkscape:window-y="0"
   inkscape:window-maximized="0"
   inkscape:current-layer="Layer_1"><sodipodi:guide
     position="0,0"
     orientation="0,404.70001"
     id="guide3761"
     inkscape:locked="false" /><sodipodi:guide
     position="404.70001,0"
     orientation="-256,0"
     id="guide3763"
     inkscape:locked="false" /><sodipodi:guide
     position="404.70001,256"
     orientation="0,-404.70001"
     id="guide3765"
     inkscape:locked="false" /><sodipodi:guide
     position="0,256"
     orientation="256,0"
     id="guide3767"
     inkscape:locked="false" /></sodipodi:namedview>
<style
   type="text/css"
   id="style2">
	.st0{fill:#659ED5;}
	.st1{stroke:#545554;stroke-miterlimit:10;}
	.st2{fill:#FFCD5F;}
	.st3{fill:#FFFFFF;}
	.st4{fill:#434343;}
	.st5{fill:#969696;}
</style>
<g
   id="g30"
   transform="translate(-177.29999,-150.90169)">
	<path
   class="st0"
   d="m 287.5,247.5 v 11.8 c -9.9,-9.9 -21.1,-14.8 -33.6,-14.8 -14.7,0 -26.9,5.4 -36.7,16.3 0.7,-0.1 1.4,-0.1 2.2,-0.1 9,0 16.6,6.3 18.6,14.8 5.5,-5.6 12.3,-8.4 20.2,-8.4 9.1,0 16.5,3.2 22.2,9.7 5.7,6.6 8.6,15 8.6,25.1 0,10.3 -2.9,18.7 -8.7,25.1 -5.7,6.4 -13.2,9.6 -22.4,9.6 -8.7,0 -15.8,-3.3 -21.5,-10 -5.6,-6.5 -8.5,-15 -8.5,-25.5 0,-1.5 0.1,-3 0.2,-4.5 -2.7,1.4 -5.7,2.2 -8.9,2.2 -6.7,0 -12.6,-3.5 -16,-8.7 -0.6,3.8 -1,7.9 -1,12.1 0,16.2 4.9,29.8 14.6,40.6 9.6,10.8 21.8,16.1 36.4,16.1 12.8,0 24.1,-5.1 34,-15.2 v 49.8 c 3.6,-3 8.2,-4.8 13.3,-4.8 4.4,0 8.5,1.4 11.9,3.7 v -145 h -24.9 z"
   id="path4"
   inkscape:connector-curvature="0"
   style="fill:#659ed5" />
	<path
   class="st0"
   d="m 498,287.5 c -9.6,-4.1 -14.5,-8.2 -14.5,-12.3 0,-2.4 0.8,-4.3 2.4,-5.8 1.6,-1.5 3.6,-2.3 5.9,-2.3 0.9,0 1.8,0.1 2.7,0.4 0,-0.1 0,-0.3 0,-0.4 0,-8.8 5.6,-16.4 13.4,-19.4 -4.2,-2 -9,-3.1 -14.2,-3.1 -9.4,0 -17.4,3.1 -24,9.2 -6.5,6.2 -9.7,13.9 -9.7,23.4 0,7.1 1.9,12.9 5.7,17.5 3,3.6 8.1,7.1 15.4,10.7 2.6,1.3 5.2,2.5 7.7,3.7 2.5,1.2 5,2.4 7.6,3.7 6.5,3.9 9.8,8 9.8,12.5 0,7.7 -4.2,11.6 -12.7,11.6 -4.2,0 -7.9,-1.4 -10.9,-4.2 -1.6,-1.4 -3.8,-4.7 -6.8,-9.9 l -21.4,9.9 c 7.6,17.4 20.5,26.3 38.6,26.3 10.6,0 19.7,-3.3 27.1,-10 7.7,-7 11.6,-15.8 11.6,-26.3 0,-8.2 -2.3,-14.6 -6.9,-19.5 -4.5,-4.7 -13.5,-10 -26.8,-15.7 z"
   id="path6"
   inkscape:connector-curvature="0"
   style="fill:#659ed5" />
	<path
   class="st0"
   d="m 582,193.8 c 1.6,-3.2 4.6,-4.8 9,-4.8 3.5,0 7.9,1.4 13.3,4.1 l 2.6,1.3 v -25.6 c -6.7,-2.6 -12.3,-3.9 -16.8,-3.9 -12.5,0 -22,3.9 -28.5,11.8 -4.7,5.6 -7.1,15.3 -7.1,28.9 v 41.8 h -8.9 v 23.4 h 8.9 v 63 c 3.1,-3.5 7.7,-5.8 12.7,-5.8 4.9,0 9.3,2.1 12.4,5.4 v -62.6 h 27.3 v -23.4 h -27.3 v -35.7 c 0.1,-8.8 0.9,-14.8 2.4,-17.9 z"
   id="path8"
   inkscape:connector-curvature="0"
   style="fill:#659ed5" />
	<path
   class="st0"
   d="m 426.1,260.1 c 0.1,0 0.1,0 0,0 -11,-10.4 -24.4,-15.6 -40,-15.6 -15.6,0 -29,5.2 -40,15.6 0,0 0,0 0,0 9,0 16.7,5.8 19.6,13.9 5.5,-4.6 12.3,-6.9 20.4,-6.9 8.2,0 15,2.3 20.5,6.8 2.9,-8 10.5,-13.8 19.5,-13.8 z"
   id="path10"
   inkscape:connector-curvature="0"
   style="fill:#659ed5" />
	<path
   class="st0"
   d="m 406.7,329.9 c -5.5,4.5 -12.3,6.7 -20.6,6.7 -8.2,0 -15,-2.3 -20.5,-6.8 -2.9,8 -10.5,13.7 -19.5,13.7 10.7,10.3 23.9,15.4 39.5,15.4 15.9,0 29.4,-5.1 40.5,-15.4 -8.9,0.1 -16.6,-5.6 -19.4,-13.6 z"
   id="path12"
   inkscape:connector-curvature="0"
   style="fill:#659ed5" />
	<circle
   class="st2"
   cx="567.09998"
   cy="347.20001"
   r="13"
   id="circle14"
   style="fill:#ffcd5f" />
	<circle
   class="st2"
   cx="514.5"
   cy="265.20001"
   r="13"
   id="circle16"
   style="fill:#ffcd5f" />
	<circle
   class="st2"
   cx="219.39999"
   cy="279.79999"
   r="13"
   id="circle18"
   style="fill:#ffcd5f" />
	<circle
   class="st2"
   cx="300"
   cy="407.89999"
   r="13"
   id="circle20"
   style="fill:#ffcd5f" />
	<circle
   class="st2"
   cx="425.89999"
   cy="278.79999"
   r="13"
   id="circle22"
   style="fill:#ffcd5f" />
	<circle
   class="st2"
   cx="425.79999"
   cy="324.70001"
   r="13"
   id="circle24"
   style="fill:#ffcd5f" />
	<circle
   class="st2"
   cx="345.79999"
   cy="324.79999"
   r="13"
   id="circle26"
   style="fill:#ffcd5f" />
	<circle
   class="st2"
   cx="345.89999"
   cy="278.89999"
   r="13"
   id="circle28"
   style="fill:#ffcd5f" />
</g>
</svg>